<svg xmlns="http://www.w3.org/2000/svg" viewBox="0 0 24 24" width="24" height="24" color="currentColor" fill="none" stroke="currentColor" stroke-width="1.5" stroke-linecap="round" stroke-linejoin="round">
    <path d="M12 8V22M12 8H8.5C7.11929 8 6 6.88071 6 5.5C6 4.11929 7.11929 3 8.5 3C10.5 3 12 5.5 12 5.5C12 5.5 13.5 3 15.5 3C16.8807 3 18 4.11929 18 5.5C18 6.88071 16.8807 8 15.5 8H12Z" />
    <path d="M3 12C3 10.3431 4.34315 9 6 9H18C19.6569 9 21 10.3431 21 12V13C21 13.5523 20.5523 14 20 14H4C3.44772 14 3 13.5523 3 13V12Z" />
    <path d="M4 14L5 20C5.15224 20.8491 5.90163 21.5 6.75 21.5H17.25C18.0984 21.5 18.8478 20.8491 19 20L20 14" />
</svg>
